<svg xmlns="http://www.w3.org/2000/svg" viewBox="0 0 512 512">
  <defs><linearGradient id="g" x1="0" y1="0" x2="1" y2="1"><stop stop-color="#7c3aed"/><stop offset="1" stop-color="#4f46e5"/></linearGradient></defs>
  <rect width="512" height="512" rx="112" fill="url(#g)"/>
  <path d="M120 284c0-78 63-141 141-141h64c36 0 65 29 65 65s-29 65-65 65h-64c-15 0-27 12-27 27s12 27 27 27h91c36 0 65 29 65 65s-29 65-65 65h-91c-78 0-141-63-141-141v-32Z" fill="none" stroke="#fff" stroke-width="38" stroke-linecap="round"/>
  <circle cx="326" cy="208" r="10" fill="#fff"/><circle cx="326" cy="208" r="4" fill="#4f46e5"/>
</svg>
